<svg xmlns="http://www.w3.org/2000/svg" xml:space="preserve" id="Layer_1" x="0" y="0" enable-background="new 0 0 457.5 88.8" version="1.1" viewBox="0 0 457.5 88.8"><path fill="#317DA1" fill-rule="evenodd" d="M2.8,71.2v9.2h5.7c1.6,0,2.9-0.4,3.9-1.2c1-0.8,1.4-2,1.4-3.5 c0-1.4-0.5-2.5-1.4-3.3c-0.9-0.8-2.2-1.2-3.8-1.2C8.7,71.2,2.8,71.2,2.8,71.2z M2.8,69.6H8c1.6,0,2.8-0.4,3.7-1.1 c0.9-0.7,1.3-1.8,1.3-3.1c0-1.4-0.5-2.5-1.4-3.2c-0.9-0.7-2.3-1-4.1-1H2.8L2.8,69.6L2.8,69.6z M0.9,82V59.5h6.7 c2.4,0,4.2,0.5,5.5,1.5c1.3,1,1.9,2.5,1.9,4.4c0,1.2-0.3,2.2-1,3c-0.6,0.9-1.5,1.5-2.6,1.9c1.3,0.3,2.4,0.9,3.2,1.9 c0.8,1,1.2,2.2,1.2,3.5c0,2-0.6,3.6-1.9,4.7c-1.3,1.1-3.1,1.7-5.4,1.7H0.9z M27.5,66.8c-0.4-0.1-0.8-0.1-1.3-0.1 c-1.2,0-2.1,0.3-2.9,1c-0.8,0.6-1.4,1.6-1.7,2.8V82h-1.8V65.3h1.8l0,2.7c1-2,2.6-3,4.7-3c0.5,0,0.9,0.1,1.2,0.2 C27.6,65.2,27.5,66.8,27.5,66.8z M30.6,73.9c0,2,0.5,3.6,1.6,4.9c1,1.3,2.4,1.9,4.1,1.9c1.7,0,3-0.6,4.1-1.9c1-1.3,1.6-3,1.6-5.1 v-0.4c0-1.3-0.2-2.5-0.7-3.5c-0.5-1.1-1.1-1.9-2-2.5c-0.9-0.6-1.8-0.9-2.9-0.9c-1.7,0-3,0.6-4,1.9c-1,1.3-1.6,3-1.6,5.1L30.6,73.9 L30.6,73.9z M28.8,73.4c0-1.6,0.3-3.1,0.9-4.4c0.6-1.3,1.5-2.3,2.6-3c1.1-0.7,2.4-1.1,3.9-1.1c2.2,0,4,0.8,5.4,2.3 c1.4,1.6,2.1,3.6,2.1,6.2v0.4c0,1.6-0.3,3.1-0.9,4.4c-0.6,1.3-1.5,2.3-2.6,3c-1.1,0.7-2.4,1.1-3.9,1.1c-2.2,0-4-0.8-5.4-2.3 c-1.4-1.6-2.1-3.6-2.1-6.2L28.8,73.4L28.8,73.4z M58.1,79.9c-1.1,1.6-2.9,2.4-5.3,2.4c-1.8,0-3.1-0.5-4.1-1.6 c-0.9-1-1.4-2.6-1.4-4.6V65.3h1.8v10.7c0,3.2,1.3,4.8,3.9,4.8c2.7,0,4.4-1.1,5.1-3.3V65.3h1.9V82h-1.8L58.1,79.9z M65.6,73.8 c0,2.1,0.4,3.8,1.3,5.1c0.9,1.2,2.1,1.9,3.6,1.9c2.3,0,3.9-1,4.8-3.1v-7.8c-0.4-1.1-1.1-1.9-1.9-2.5c-0.8-0.6-1.8-0.8-2.9-0.8 c-1.6,0-2.8,0.6-3.6,1.8C66,69.6,65.6,71.4,65.6,73.8z M63.7,73.5c0-2.6,0.6-4.7,1.7-6.2c1.2-1.5,2.7-2.3,4.7-2.3 c2.3,0,4,0.9,5.2,2.7l0.1-2.4h1.7v16.4c0,2.2-0.6,3.9-1.8,5.1c-1.2,1.3-2.8,1.9-4.9,1.9c-1.2,0-2.3-0.3-3.3-0.8 c-1.1-0.5-1.9-1.2-2.5-2.1l1-1.1c1.3,1.6,2.9,2.4,4.7,2.4c1.5,0,2.8-0.5,3.6-1.4s1.3-2.2,1.3-3.8v-2.1c-1.2,1.7-2.9,2.5-5.2,2.5 c-1.9,0-3.5-0.8-4.7-2.3c-1.2-1.5-1.8-3.6-1.8-6.3C63.7,73.7,63.7,73.5,63.7,73.5z M83.5,68.1c0.6-1,1.4-1.8,2.3-2.3 c0.9-0.5,2-0.8,3.1-0.8c1.8,0,3.1,0.5,4,1.5c0.9,1,1.3,2.5,1.3,4.6v11h-1.8V71c0-1.5-0.3-2.6-1-3.3c-0.6-0.7-1.6-1.1-3-1.1 c-1.1,0-2.2,0.4-3,1.1c-0.9,0.7-1.5,1.7-2,2.9V82h-1.8V58.2h1.8C83.5,58.2,83.5,68.1,83.5,68.1z M101.5,61v4.3h3.5v1.5h-3.5V78 c0,0.9,0.2,1.6,0.5,2.1c0.3,0.5,0.9,0.7,1.7,0.7c0.3,0,0.8-0.1,1.5-0.2l0.1,1.5c-0.5,0.2-1.1,0.3-2,0.3c-1.3,0-2.2-0.4-2.8-1.1 c-0.6-0.7-0.9-1.8-0.9-3.3V66.8h-3.1v-1.5h3.1V61C99.6,61,101.5,61,101.5,61z M119.4,61v4.3h3.5v1.5h-3.5V78 c0,0.9,0.2,1.6,0.5,2.1c0.3,0.5,0.9,0.7,1.7,0.7c0.3,0,0.8-0.1,1.5-0.2l0.1,1.5c-0.5,0.2-1.1,0.3-2,0.3c-1.3,0-2.2-0.4-2.8-1.1 c-0.6-0.7-0.9-1.8-0.9-3.3V66.8h-3.1v-1.5h3.1V61C117.5,61,119.4,61,119.4,61z M126.5,73.9c0,2,0.5,3.6,1.6,4.9 c1,1.3,2.4,1.9,4.1,1.9c1.7,0,3-0.6,4.1-1.9c1-1.3,1.6-3,1.6-5.1v-0.4c0-1.3-0.2-2.5-0.7-3.5c-0.5-1.1-1.1-1.9-2-2.5 c-0.9-0.6-1.8-0.9-2.9-0.9c-1.7,0-3,0.6-4,1.9c-1,1.3-1.6,3-1.6,5.1L126.5,73.9L126.5,73.9z M124.6,73.4c0-1.6,0.3-3.1,0.9-4.4 c0.6-1.3,1.5-2.3,2.6-3c1.1-0.7,2.4-1.1,3.9-1.1c2.2,0,4,0.8,5.4,2.3c1.4,1.6,2.1,3.6,2.1,6.2v0.4c0,1.6-0.3,3.1-0.9,4.4 c-0.6,1.3-1.5,2.3-2.6,3c-1.1,0.7-2.4,1.1-3.9,1.1c-2.2,0-4-0.8-5.4-2.3c-1.4-1.6-2.1-3.6-2.1-6.2L124.6,73.4L124.6,73.4z M156.4,79.4l4.9-14.1h2l-7.2,19.6l-0.4,0.9c-0.9,2-2.3,3.1-4.3,3.1c-0.4,0-0.9-0.1-1.4-0.2l0-1.5l1,0.1c0.9,0,1.6-0.2,2.2-0.7 c0.6-0.5,1-1.2,1.4-2.3l0.8-2.3l-6.3-16.6h2L156.4,79.4L156.4,79.4z M166.4,73.9c0,2,0.5,3.6,1.6,4.9c1,1.3,2.4,1.9,4.1,1.9 c1.7,0,3-0.6,4.1-1.9c1-1.3,1.6-3,1.6-5.1v-0.4c0-1.3-0.2-2.5-0.7-3.5c-0.5-1.1-1.1-1.9-2-2.5c-0.9-0.6-1.8-0.9-2.9-0.9 c-1.7,0-3,0.6-4,1.9c-1,1.3-1.6,3-1.6,5.1C166.4,73.6,166.4,73.9,166.4,73.9z M164.5,73.4c0-1.6,0.3-3.1,0.9-4.4 c0.6-1.3,1.5-2.3,2.6-3c1.1-0.7,2.4-1.1,3.9-1.1c2.2,0,4,0.8,5.4,2.3c1.4,1.6,2.1,3.6,2.1,6.2v0.4c0,1.6-0.3,3.1-0.9,4.4 c-0.6,1.3-1.5,2.3-2.6,3c-1.1,0.7-2.4,1.1-3.9,1.1c-2.2,0-4-0.8-5.4-2.3c-1.4-1.6-2.1-3.6-2.1-6.2L164.5,73.4L164.5,73.4z M193.8,79.9c-1.1,1.6-2.9,2.4-5.3,2.4c-1.8,0-3.1-0.5-4.1-1.6c-0.9-1-1.4-2.6-1.4-4.6V65.3h1.8v10.7c0,3.2,1.3,4.8,3.9,4.8 c2.7,0,4.4-1.1,5.1-3.3V65.3h1.9V82h-1.8L193.8,79.9L193.8,79.9z M219.8,73.5c0-2.2-0.4-3.9-1.3-5.1c-0.9-1.2-2.1-1.8-3.6-1.8 c-1.2,0-2.2,0.3-3,0.9c-0.8,0.6-1.5,1.4-1.9,2.6v7.6c0.9,2.1,2.6,3.2,4.9,3.2c1.5,0,2.7-0.6,3.6-1.8S219.8,75.9,219.8,73.5 L219.8,73.5z M221.7,73.8c0,2.6-0.6,4.7-1.7,6.2c-1.2,1.5-2.7,2.3-4.7,2.3c-2.3,0-4.1-0.9-5.3-2.6l-0.1,2.3h-1.7V58.2h1.8v9.5 c1.2-1.8,2.9-2.7,5.2-2.7c2,0,3.6,0.8,4.7,2.3c1.2,1.5,1.7,3.6,1.7,6.3L221.7,73.8L221.7,73.8z M230.3,79.4l4.9-14.1h2l-7.2,19.6 l-0.4,0.9c-0.9,2-2.3,3.1-4.3,3.1c-0.4,0-0.9-0.1-1.4-0.2l0-1.5l1,0.1c0.9,0,1.6-0.2,2.2-0.7c0.6-0.5,1-1.2,1.4-2.3l0.8-2.3 l-6.3-16.6h2L230.3,79.4L230.3,79.4z M249.1,80.4H263V82h-16.2v-1.4l13.4-19.5h-13v-1.6h15.3v1.4L249.1,80.4z" clip-rule="evenodd"/><defs><filter id="Adobe_OpacityMaskFilter" width="191.3" height="23.2" x="266.2" y="59.2" filterUnits="userSpaceOnUse"><feColorMatrix values="1 0 0 0 0 0 1 0 0 0 0 0 1 0 0 0 0 0 1 0"/></filter></defs><mask id="b_00000165952962109455996120000006406895837484746383_" width="191.3" height="23.2" x="266.2" y="59.2" maskUnits="userSpaceOnUse"><g filter="url(#Adobe_OpacityMaskFilter)"><path id="a_00000132801867416624910590000001435028709455402935_" fill="#FFFFFF" fill-rule="evenodd" d="M-231.7,88.8h689.3V-25.1h-689.3V88.8z" clip-rule="evenodd"/></g></mask><path fill="#317DA1" fill-rule="evenodd" d="M266.6,82h1.9V65.3h-1.9V82z M266.2,60.4c0-0.3,0.1-0.6,0.3-0.9c0.2-0.2,0.5-0.4,0.9-0.4c0.4,0,0.7,0.1,0.9,0.4 c0.2,0.2,0.3,0.5,0.3,0.9c0,0.3-0.1,0.6-0.3,0.9c-0.2,0.2-0.5,0.4-0.9,0.4c-0.4,0-0.7-0.1-0.9-0.4 C266.4,61.1,266.2,60.8,266.2,60.4z M274.8,65.3l0.1,2.7c0.6-1,1.4-1.8,2.3-2.3c0.9-0.5,2-0.8,3.1-0.8c2.6,0,4.3,1.1,5,3.3 c0.6-1,1.4-1.8,2.4-2.4c1-0.6,2.1-0.8,3.3-0.8c3.6,0,5.4,2,5.5,5.9V82h-1.9V71c0-1.5-0.3-2.6-1-3.3c-0.6-0.7-1.7-1.1-3.1-1.1 c-1.3,0-2.5,0.5-3.4,1.3c-0.9,0.8-1.4,1.9-1.5,3.1V82h-1.9V70.8c0-1.4-0.3-2.5-1-3.2c-0.7-0.7-1.7-1.1-3.1-1.1c-1.2,0-2.2,0.3-3,1 c-0.8,0.7-1.5,1.7-1.9,3V82H273V65.3C273,65.3,274.8,65.3,274.8,65.3z M302.6,65.3l0.1,2.7c0.6-1,1.4-1.8,2.3-2.3 c0.9-0.5,2-0.8,3.1-0.8c2.6,0,4.3,1.1,5,3.3c0.6-1,1.4-1.8,2.4-2.4c1-0.6,2.1-0.8,3.3-0.8c3.6,0,5.4,2,5.5,5.9V82h-1.9V71 c0-1.5-0.3-2.6-1-3.3c-0.6-0.7-1.7-1.1-3.1-1.1c-1.3,0-2.5,0.5-3.4,1.3c-0.9,0.8-1.4,1.9-1.5,3.1V82h-1.9V70.8 c0-1.4-0.3-2.5-1-3.2c-0.7-0.7-1.7-1.1-3.1-1.1c-1.2,0-2.2,0.3-3,1c-0.8,0.7-1.5,1.7-1.9,3V82h-1.9V65.3 C300.9,65.3,302.6,65.3,302.6,65.3z M335,66.5c-1.4,0-2.6,0.5-3.5,1.5c-1,1-1.5,2.4-1.7,4.1h10.1V72c-0.1-1.6-0.5-2.9-1.4-3.9 C337.6,67,336.4,66.5,335,66.5 M335.4,82.3c-1.4,0-2.7-0.4-3.9-1.1c-1.2-0.7-2-1.7-2.7-2.9c-0.6-1.3-1-2.7-1-4.2v-0.7 c0-1.6,0.3-3.1,0.9-4.4c0.6-1.3,1.5-2.3,2.6-3s2.3-1.1,3.6-1.1c2,0,3.6,0.7,4.8,2.1s1.8,3.3,1.8,5.7v1h-12v0.4 c0,1.9,0.5,3.5,1.6,4.7c1.1,1.3,2.5,1.9,4.1,1.9c1,0,1.9-0.2,2.6-0.5c0.8-0.4,1.4-0.9,2.1-1.7l1.2,0.9 C339.9,81.3,337.9,82.3,335.4,82.3 M352.8,66.8c-0.4-0.1-0.8-0.1-1.3-0.1c-1.2,0-2.1,0.3-2.9,1c-0.8,0.6-1.4,1.6-1.7,2.8V82h-1.8 V65.3h1.8l0,2.7c1-2,2.6-3,4.7-3c0.5,0,0.9,0.1,1.2,0.2L352.8,66.8L352.8,66.8z M365.8,71.2v9.2h5.7c1.6,0,2.9-0.4,3.9-1.2 c1-0.8,1.4-2,1.4-3.5c0-1.4-0.5-2.5-1.4-3.3c-0.9-0.8-2.2-1.2-3.8-1.2H365.8L365.8,71.2z M365.8,69.6h5.2c1.6,0,2.8-0.4,3.7-1.1 c0.9-0.7,1.3-1.8,1.3-3.1c0-1.4-0.5-2.5-1.4-3.2c-0.9-0.7-2.3-1-4.1-1h-4.8V69.6z M363.9,82V59.5h6.7c2.4,0,4.2,0.5,5.5,1.5 c1.3,1,1.9,2.5,1.9,4.4c0,1.2-0.3,2.2-1,3c-0.6,0.9-1.5,1.5-2.6,1.9c1.3,0.3,2.4,0.9,3.2,1.9c0.8,1,1.2,2.2,1.2,3.5 c0,2-0.6,3.6-1.9,4.7c-1.3,1.1-3.1,1.7-5.4,1.7H363.9z M382.8,82h1.9V65.3h-1.9V82z M382.5,60.4c0-0.3,0.1-0.6,0.3-0.9 c0.2-0.2,0.5-0.4,0.9-0.4c0.4,0,0.7,0.1,0.9,0.4c0.2,0.2,0.3,0.5,0.3,0.9c0,0.3-0.1,0.6-0.3,0.9c-0.2,0.2-0.5,0.4-0.9,0.4 c-0.4,0-0.7-0.1-0.9-0.4C382.6,61.1,382.5,60.8,382.5,60.4z M390.2,73.9c0,2,0.5,3.6,1.6,4.9c1,1.3,2.4,1.9,4.1,1.9 c1.7,0,3-0.6,4.1-1.9c1-1.3,1.6-3,1.6-5.1v-0.4c0-1.3-0.2-2.5-0.7-3.5c-0.5-1.1-1.1-1.9-2-2.5c-0.9-0.6-1.8-0.9-2.9-0.9 c-1.7,0-3,0.6-4,1.9c-1,1.3-1.6,3-1.6,5.1L390.2,73.9L390.2,73.9z M388.3,73.4c0-1.6,0.3-3.1,0.9-4.4c0.6-1.3,1.5-2.3,2.6-3 s2.4-1.1,3.9-1.1c2.2,0,4,0.8,5.4,2.3c1.4,1.6,2.1,3.6,2.1,6.2v0.4c0,1.6-0.3,3.1-0.9,4.4c-0.6,1.3-1.5,2.3-2.6,3 c-1.1,0.7-2.4,1.1-3.9,1.1c-2.2,0-4-0.8-5.4-2.3c-1.4-1.6-2.1-3.6-2.1-6.2L388.3,73.4L388.3,73.4z M408.6,65.3l0.1,2.7 c0.6-1,1.4-1.8,2.3-2.3c0.9-0.5,2-0.8,3.1-0.8c2.6,0,4.3,1.1,5,3.3c0.6-1,1.4-1.8,2.4-2.4c1-0.6,2.1-0.8,3.3-0.8 c3.6,0,5.4,2,5.5,5.9V82h-1.9V71c0-1.5-0.3-2.6-1-3.3c-0.6-0.7-1.7-1.1-3.1-1.1c-1.3,0-2.5,0.5-3.4,1.3c-0.9,0.8-1.4,1.9-1.5,3.1 V82h-1.9V70.8c0-1.4-0.3-2.5-1-3.2c-0.7-0.7-1.7-1.1-3.1-1.1c-1.2,0-2.2,0.3-3,1c-0.8,0.7-1.5,1.7-1.9,3V82h-1.9V65.3 C406.8,65.3,408.6,65.3,408.6,65.3z M441,66.5c-1.4,0-2.6,0.5-3.5,1.5c-1,1-1.5,2.4-1.7,4.1h10.1V72c-0.1-1.6-0.5-2.9-1.4-3.9 C443.5,67,442.4,66.5,441,66.5 M441.3,82.3c-1.4,0-2.7-0.4-3.9-1.1c-1.2-0.7-2-1.7-2.7-2.9c-0.6-1.3-1-2.7-1-4.2v-0.7 c0-1.6,0.3-3.1,0.9-4.4c0.6-1.3,1.5-2.3,2.6-3s2.3-1.1,3.6-1.1c2,0,3.6,0.7,4.8,2.1c1.2,1.4,1.8,3.3,1.8,5.7v1h-12v0.4 c0,1.9,0.5,3.5,1.6,4.7c1.1,1.3,2.5,1.9,4.1,1.9c1,0,1.9-0.2,2.6-0.5c0.8-0.4,1.4-0.9,2.1-1.7l1.2,0.9 C445.9,81.3,443.9,82.3,441.3,82.3 M453.8,61v4.3h3.5v1.5h-3.5V78c0,0.9,0.2,1.6,0.5,2.1c0.3,0.5,0.9,0.7,1.7,0.7 c0.3,0,0.8-0.1,1.5-0.2l0.1,1.5c-0.5,0.2-1.1,0.3-2,0.3c-1.3,0-2.2-0.4-2.8-1.1c-0.6-0.7-0.9-1.8-0.9-3.3V66.8h-3.1v-1.5h3.1V61 C451.9,61,453.8,61,453.8,61z" clip-rule="evenodd" mask="url(#b_00000165952962109455996120000006406895837484746383_)"/><defs><filter id="Adobe_OpacityMaskFilter_00000094601735718724426820000007841851220876850578_" width="86.9" height="43.6" x="39" y="0" filterUnits="userSpaceOnUse"><feColorMatrix values="1 0 0 0 0 0 1 0 0 0 0 0 1 0 0 0 0 0 1 0"/></filter></defs><mask id="b_00000180328097293281845510000018230483132202261694_" width="86.9" height="43.6" x="39" y="0" maskUnits="userSpaceOnUse"><g filter="url(#Adobe_OpacityMaskFilter_00000094601735718724426820000007841851220876850578_)"><path id="a_00000080167531254988857720000012071605458644657560_" fill="#FFFFFF" fill-rule="evenodd" d="M0,71.8h434.5V0H0V71.8z" clip-rule="evenodd"/></g></mask><path fill="#317DA1" fill-rule="evenodd" d="M57.5,27c0-7.3-1.6-10.4-4.4-10.4c-3.1,0-4.9,4.9-4.9,10.4C48.1,27,57.5,27,57.5,27z M48.1,29.2c0.2,7.2,3.1,9.8,6.9,10.7 c3,0.7,7.3-0.8,8.6-4.6l0.8,0.3c-0.8,3.6-4.6,8-12.1,8c-7.6,0-13.2-6.5-13.2-13.8c0-9,6.5-14,14-14c7.3,0,12.1,3.4,12.1,13.3 C65.2,29.2,48.1,29.2,48.1,29.2z M74.4,36.3c0,0,0,3.8,3,3.8c1.5,0,2.5-1.2,3.1-2.5v-8.4C75.3,30.3,74.4,33.5,74.4,36.3z M94,39.5 c-0.6,2.2-3.5,4.2-7.1,4.2c0,0-5.8,0-6.4-4.9c-0.8,2.8-4,4.9-8.1,4.9c-1.1,0-6.9-0.5-6.9-5.9c0-6,4.8-6.9,15-9.4v-3.6 c0-6-3.4-9.1-7.3-7c-0.9,0.5-1.7,1.4-0.5,1.7c0.9,0.2,1.6,0.8,2.1,1.7c0.9,1.8,0.2,4-1.6,5c-1.8,0.9-4,0.2-5-1.6 c-0.6-1.3-0.5-2.9,0.3-3.9c0.6-0.9,1.5-2.2,4.2-3.6c2.6-1.4,5.5-1.2,5.5-1.2c7.6,0,10.7,4.7,10.7,11.6v8.6c0,0,0,4.1,2.8,4 c0,0,1.3,0,1.7-1L94,39.5L94,39.5z M114.5,25.6c0-6.3-3.1-9-6.2-9c-3.5,0-5.5,2.8-5.5,12.1c0,8.3,1.7,12.1,6.1,12.1 c3.1,0,5.3-2.4,5.6-5.3C114.5,35.5,114.5,25.6,114.5,25.6z M125.9,42.2l-9.8,1.3c-1.6,0.3-1.6-1-1.6-1v-4.3 c-1.4,3.8-5.8,5.4-9.2,5.4c-7.3,0-12.5-4.9-12.5-14c0-9.4,6.2-13.8,14.4-13.8c3.6,0,5.9,0.9,7.3,2.1V6.6c0-2-0.6-2.7-2.9-3.6V2.3 L123,0v37.7c0,2.8,0.6,3.5,2.9,3.8C125.9,41.5,125.9,42.2,125.9,42.2z" clip-rule="evenodd" mask="url(#b_00000180328097293281845510000018230483132202261694_)"/><defs><filter id="Adobe_OpacityMaskFilter_00000074431145102617280130000015953290777282833031_" width="32" height="40.7" x="123.3" y="16.4" filterUnits="userSpaceOnUse"><feColorMatrix values="1 0 0 0 0 0 1 0 0 0 0 0 1 0 0 0 0 0 1 0"/></filter></defs><mask id="b_00000163756709281157239770000011405636951524381074_" width="32" height="40.7" x="123.3" y="16.4" maskUnits="userSpaceOnUse"><g filter="url(#Adobe_OpacityMaskFilter_00000074431145102617280130000015953290777282833031_)"><path id="a_00000000222055669347768040000011128755293971096450_" fill="#FFFFFF" fill-rule="evenodd" d="M0,71.8h434.5V0H0V71.8z" clip-rule="evenodd"/></g></mask><path fill="#317DA1" fill-rule="evenodd" d="M155.3,16.4v0.7c-2.7,0-4.7,1.2-8.1,9.2l-8,22c-1.6,4.9-3.4,6.8-4.6,7.8c-1.2,0.9-3.5,1.3-5,0.6c-2.3-1-3.3-3.7-2.3-6 c1-2.3,3.6-3.2,5.9-2.3c1.2,0.5,1.9,1.4,2.3,2.5c0.2,0.8,1.7,1.2,2.9-2.9l1.1-3c-1.8-4.1-12.1-25.1-12.1-25.1 c-1.3-2.7-3.1-2.9-4.2-2.9v-0.7h15.9v0.7c-3.5,0-1.4,4.2-1.4,4.2l6,12.3l2.7-7.4c0,0,3.4-9.1-3.6-9.1v-0.7 C142.9,16.4,155.3,16.4,155.3,16.4z" clip-rule="evenodd" mask="url(#b_00000163756709281157239770000011405636951524381074_)"/><defs><filter id="Adobe_OpacityMaskFilter_00000074428758181106984310000004550293718748233857_" width="79.7" height="41.2" x="153.2" y="2.4" filterUnits="userSpaceOnUse"><feColorMatrix values="1 0 0 0 0 0 1 0 0 0 0 0 1 0 0 0 0 0 1 0"/></filter></defs><mask id="b_00000099646057661601603270000003057395949850432393_" width="79.7" height="41.2" x="153.2" y="2.4" maskUnits="userSpaceOnUse"><g filter="url(#Adobe_OpacityMaskFilter_00000074428758181106984310000004550293718748233857_)"><path id="a_00000175309412509700611140000016544835553183104427_" fill="#FFFFFF" fill-rule="evenodd" d="M0,71.8h434.5V0H0V71.8z" clip-rule="evenodd"/></g></mask><path fill="#00344A" fill-rule="evenodd" d="M167.8,25c7.1,0,9.8-0.2,9.8-10.9c0-11-3.1-10.9-9.8-10.9h-1V25H167.8z M166.8,35.2c0,7,2.9,7.2,5.8,7.2v0.8h-19v-0.8 c2.4,0,3.2-2,3.2-6V9c0-3.6-1-5.8-3.6-5.8V2.4h14.6c11.5,0,21.3,1.4,21.3,11.7c0,10.2-9.8,11.6-21.3,11.6h-1L166.8,35.2L166.8,35.2 z M195.8,36.3c0,0,0,3.8,3,3.8c1.5,0,2.5-1.2,3.1-2.5v-8.4C196.7,30.3,195.8,33.5,195.8,36.3z M215.4,39.5 c-0.6,2.2-3.5,4.2-7.1,4.2c0,0-5.8,0-6.4-4.9c-0.8,2.8-4,4.9-8.1,4.9c-1.1,0-6.9-0.5-6.9-5.9c0-6,4.8-6.9,15-9.4v-3.6 c0-6-3.4-9.1-7.3-7c-0.9,0.5-1.7,1.4-0.5,1.7c0.9,0.2,1.6,0.8,2.1,1.7c0.9,1.8,0.2,4-1.6,5c-1.8,0.9-4,0.2-5-1.6 c-0.6-1.3-0.5-2.9,0.3-3.9c0.6-0.9,1.5-2.2,4.2-3.6c2.6-1.4,5.5-1.2,5.5-1.2c7.6,0,10.7,4.7,10.7,11.6v8.6c0,0,0,4.1,2.8,4 c0,0,1.3,0,1.7-1L215.4,39.5L215.4,39.5z M232.9,38c-0.9,2.9-4.4,5.7-8.4,5.7c-4.6,0-8.6-1.8-8.6-8.8V17.2h-3.2l-0.1-2.2h3.4V8.7 l8.5-1.2V15h7.2l-0.1,2.2h-7.1v17.5c0,3.2,1.3,4.9,4.4,4.9c1.7,0,2.9-1,3.5-1.8L232.9,38L232.9,38z" clip-rule="evenodd" mask="url(#b_00000099646057661601603270000003057395949850432393_)"/><defs><filter id="Adobe_OpacityMaskFilter_00000127765853519852508730000016288541505950910340_" width="39.8" height="40.2" x="231.5" y="3.4" filterUnits="userSpaceOnUse"><feColorMatrix values="1 0 0 0 0 0 1 0 0 0 0 0 1 0 0 0 0 0 1 0"/></filter></defs><mask id="b_00000002346779611844414420000008362395929548882083_" width="39.8" height="40.2" x="231.5" y="3.4" maskUnits="userSpaceOnUse"><g filter="url(#Adobe_OpacityMaskFilter_00000127765853519852508730000016288541505950910340_)"><path id="a_00000132808830020565225400000008859287440169393814_" fill="#FFFFFF" fill-rule="evenodd" d="M0,71.8h434.5V0H0V71.8z" clip-rule="evenodd"/></g></mask><path fill="#00344A" fill-rule="evenodd" d="M238.1,3.4c2.6,0,4.7,2.1,4.7,4.7c0,2.6-2.1,4.7-4.7,4.7c-2.7,0-4.7-2.1-4.7-4.7C233.4,5.5,235.5,3.4,238.1,3.4z M245.4,43.1h-13.2 v-0.7c2.2-0.7,2.3-3.1,2.3-6.1V22.9c0-2-0.6-2.8-3-3.9v-0.8l11.5-2.4v20.5c0,3.2,0.3,5.5,2.4,6.1V43.1z M263.6,27 c0-7.3-1.6-10.4-4.4-10.4c-3.1,0-4.9,4.9-4.9,10.4C254.2,27,263.6,27,263.6,27z M254.2,29.2c0.2,7.2,3.1,9.8,6.9,10.7 c3,0.7,7.3-0.8,8.6-4.6l0.8,0.3c-0.8,3.6-4.6,8-12.1,8c-7.6,0-13.2-6.5-13.2-13.8c0-9,6.5-14,14-14c7.3,0,12.1,3.4,12.1,13.3 L254.2,29.2L254.2,29.2z" clip-rule="evenodd" mask="url(#b_00000002346779611844414420000008362395929548882083_)"/><defs><filter id="Adobe_OpacityMaskFilter_00000005255005722826493050000016074853123170159759_" width="49.1" height="36.2" x="270.5" y="7.5" filterUnits="userSpaceOnUse"><feColorMatrix values="1 0 0 0 0 0 1 0 0 0 0 0 1 0 0 0 0 0 1 0"/></filter></defs><mask id="b_00000178904858402138162030000010663336788776386700_" width="49.1" height="36.2" x="270.5" y="7.5" maskUnits="userSpaceOnUse"><g filter="url(#Adobe_OpacityMaskFilter_00000005255005722826493050000016074853123170159759_)"><path id="a_00000181773960474423529300000017318570940361698482_" fill="#FFFFFF" fill-rule="evenodd" d="M0,71.8h434.5V0H0V71.8z" clip-rule="evenodd"/></g></mask><path fill="#00344A" fill-rule="evenodd" d="M301.3,43.1h-13.2v-0.7c2.2-0.6,2.3-3.2,2.3-6.1V24.9c0-3.1-1.5-4.9-4.3-4.9c-1.8,0-3.8,1.7-4.2,3.5v12.8c0,3.2,0.3,5.4,2.4,6v0.7 h-13.2v-0.7c2.2-0.6,2.3-3.1,2.3-6V22.8c0-2-0.6-2.8-2.9-3.8v-0.8l11.5-2.4v5.9c1.4-3.3,5.2-5.9,8.6-5.9c4.6,0,8.4,1.9,8.4,8.8 v11.6c0,3.2,0.3,5.6,2.4,6.1L301.3,43.1L301.3,43.1z M319.5,38c-0.9,2.9-4.4,5.7-8.4,5.7c-4.6,0-8.6-1.8-8.6-8.8V17.2h-3.2 l-0.1-2.2h3.4V8.7l8.5-1.2V15h7.2l-0.1,2.2h-7v17.5c0,3.2,1.3,4.9,4.4,4.9c1.7,0,2.9-1,3.5-1.8C318.9,37.6,319.5,38,319.5,38z" clip-rule="evenodd" mask="url(#b_00000178904858402138162030000010663336788776386700_)"/><path fill="#317DA1" fill-rule="evenodd" d="M42,43.1h-8.4c-7.2,0-7.2-1.3-9.8-12.9c-1.3-5.9-7.5-5.7-7.5-5.7 h-2.7v11.9c0,4.8,1,6,3.5,6v0.8H0v-0.8c2.5,0,3.6-1.1,3.6-6v-28c0-3.6-1-5.1-3.6-5.1V2.4h15.4c11.5,0,20.7,1.4,20.7,11 c0,7.9-6.2,10.1-12.4,10.5c5.2-0.2,9.2,1.8,12,12.2c1.2,4.4,4.7,6.1,6.2,6.2V43.1z" clip-rule="evenodd"/><path fill="#FFFFFF" fill-rule="evenodd" d="M15.4,3.2h-1.8v20.5h1.8c6.6,0,9.2,0.1,9.2-10.2 C24.6,2.9,21.6,3.2,15.4,3.2z" clip-rule="evenodd"/></svg>